<?xml version="1.0" encoding="UTF-8"?>
<!DOCTYPE svg PUBLIC "-//W3C//DTD SVG 1.1//EN" "http://www.w3.org/Graphics/SVG/1.1/DTD/svg11.dtd">
<!-- Creator: CorelDRAW X7 -->
<svg xmlns="http://www.w3.org/2000/svg" xml:space="preserve" width="297mm" height="210mm" version="1.1" style="shape-rendering:geometricPrecision; text-rendering:geometricPrecision; image-rendering:optimizeQuality; fill-rule:evenodd; clip-rule:evenodd"
viewBox="0 0 29700 21000"
 xmlns:xlink="http://www.w3.org/1999/xlink">
 <defs>
  <style type="text/css">
   <![CDATA[
    .str0 {stroke:black;stroke-width:20}
    .fil5 {fill:#96989A}
    .fil4 {fill:#282829}
    .fil6 {fill:#FEFEFE;fill-rule:nonzero}
    .fil2 {fill:#A9ABAE;fill-rule:nonzero}
    .fil0 {fill:#96989A;fill-rule:nonzero}
    .fil3 {fill:#282829;fill-rule:nonzero}
    .fil1 {fill:black;fill-rule:nonzero}
   ]]>
  </style>
 </defs>
 <g id="Plan_x0020_1">
  <metadata id="CorelCorpID_0Corel-Layer"/>
  <polygon class="fil0" points="37495,27230 36772,27230 36772,26002 36879,26002 36879,27123 37495,27123 "/>
  <polygon id="1" class="fil0" points="37649,25992 37746,25992 37746,26138 37708,26249 37649,26249 "/>
  <path id="2" class="fil0" d="M38042 27230l-112 0 427 -1228 101 0 424 1228 -114 0 -133 -376 -458 0 -135 376zm366 -1072l-198 589 394 0 -196 -589z"/>
  <path id="3" class="fil0" d="M39068 26305c0,-55 10,-103 31,-142 21,-40 50,-72 88,-98 37,-26 81,-45 132,-58 52,-12 108,-18 169,-18 63,0 118,5 164,17 47,11 86,25 118,44 32,18 58,38 77,60 19,22 34,43 44,63l-98 46c-25,-48 -65,-80 -120,-97 -54,-18 -116,-27 -185,-27 -45,0 -87,4 -125,11 -39,8 -72,19 -99,36 -28,16 -50,38 -66,64 -15,27 -23,60 -23,100l0 619c0,44 9,79 28,106 18,28 43,49 72,65 30,16 64,27 101,32 37,6 75,9 112,9 37,0 75,-3 113,-9 37,-5 71,-16 100,-32 30,-16 54,-38 72,-65 19,-28 28,-64 28,-107l0 -282 -313 0 0 -106 420 0 0 387c0,53 -10,100 -31,139 -20,40 -48,73 -85,100 -37,27 -81,47 -132,61 -52,14 -109,20 -172,20 -61,0 -117,-6 -169,-18 -51,-13 -95,-32 -132,-58 -38,-26 -67,-59 -88,-99 -21,-40 -31,-88 -31,-145l0 -618z"/>
  <polygon id="4" class="fil0" points="41002,26109 40302,26109 40302,26536 40805,26536 40805,26642 40302,26642 40302,27123 41002,27123 41002,27230 40196,27230 40196,26002 41002,26002 "/>
  <polygon id="5" class="fil0" points="41258,27230 41258,26002 41373,26002 42004,27038 42004,26002 42111,26002 42111,27230 41994,27230 41364,26193 41364,27230 "/>
  <path id="6" class="fil0" d="M42399 26305c0,-56 11,-104 32,-145 21,-40 51,-72 88,-98 37,-25 82,-44 133,-56 51,-11 107,-17 167,-17 87,0 164,13 231,39 67,25 120,72 160,140l-97 47c-26,-48 -65,-80 -116,-96 -52,-16 -112,-24 -178,-24 -45,0 -87,4 -126,11 -38,8 -71,19 -99,36 -27,16 -49,38 -65,64 -16,27 -24,60 -24,100l0 619c0,41 10,76 28,103 19,27 43,49 73,65 30,17 64,28 101,34 37,7 75,10 112,10 67,0 126,-8 176,-24 50,-16 89,-48 118,-97l94 51c-35,64 -87,110 -155,136 -69,27 -146,40 -233,40 -61,0 -117,-6 -169,-19 -51,-13 -95,-33 -133,-59 -37,-26 -66,-59 -87,-99 -21,-41 -31,-89 -31,-143l0 -618z"/>
  <polygon id="7" class="fil0" points="44270,26109 43571,26109 43571,26536 44074,26536 44074,26642 43571,26642 43571,27123 44270,27123 44270,27230 43464,27230 43464,26002 44270,26002 "/>
  <path id="8" class="fil1" d="M45034 26002l420 0c70,0 129,8 177,25 49,16 88,39 119,69 30,30 52,66 66,109 13,43 20,91 20,144 0,115 -30,203 -91,262 -61,59 -159,89 -292,89l-313 0 0 530 -106 0 0 -1228zm419 107l-313 0 0 484 313 0c47,0 88,-4 123,-12 34,-8 63,-21 86,-40 22,-18 39,-43 51,-74 11,-31 17,-70 17,-118 0,-55 -9,-99 -25,-131 -16,-32 -38,-56 -64,-73 -26,-16 -55,-26 -88,-30 -33,-4 -66,-6 -100,-6z"/>
  <path id="9" class="fil1" d="M46879 26307l0 615c0,107 -35,187 -107,241 -72,54 -176,80 -313,80 -136,0 -240,-26 -312,-80 -72,-54 -108,-134 -108,-241l0 -615c0,-104 36,-183 108,-237 72,-54 176,-81 312,-81 137,0 241,26 313,79 72,53 107,133 107,239zm-106 621l0 -626c0,-15 -2,-33 -6,-57 -4,-23 -16,-45 -36,-68 -20,-22 -51,-41 -93,-57 -42,-17 -102,-25 -179,-25 -77,0 -138,8 -180,25 -42,16 -73,36 -93,58 -20,23 -31,46 -35,70 -3,24 -5,42 -5,56l0 622c0,14 2,33 5,56 4,24 15,47 35,70 20,23 51,42 93,59 42,17 103,26 180,26 77,0 137,-9 179,-25 42,-16 73,-36 93,-58 20,-23 32,-46 36,-70 4,-24 6,-42 6,-56z"/>
  <path id="10" class="fil1" d="M48024 26002l0 923c0,54 -10,101 -30,141 -21,40 -49,73 -85,99 -36,26 -80,46 -130,59 -51,13 -107,19 -168,19 -63,0 -121,-6 -174,-19 -52,-13 -97,-33 -134,-59 -38,-27 -67,-60 -88,-99 -20,-40 -31,-87 -31,-141l0 -923 107 0 0 924c0,39 7,71 23,98 15,27 37,48 65,65 28,17 62,29 101,37 39,7 83,11 130,11 36,0 73,-3 109,-9 36,-5 69,-16 98,-32 30,-16 54,-37 72,-65 19,-27 28,-62 28,-105l0 -924 107 0z"/>
  <polygon id="11" class="fil1" points="49052,27230 48329,27230 48329,26002 48436,26002 48436,27123 49052,27123 "/>
  <polygon id="12" class="fil1" points="49347,26000 49347,27230 49240,27230 49240,26000 "/>
  <polygon id="13" class="fil1" points="50459,26109 49760,26109 49760,26536 50263,26536 50263,26642 49760,26642 49760,27123 50459,27123 50459,27230 49653,27230 49653,26002 50459,26002 "/>
  <polygon class="fil0" points="43981,18436 43258,18436 43258,17208 43365,17208 43365,18329 43981,18329 "/>
  <polygon id="1" class="fil0" points="44135,17198 44232,17198 44232,17344 44194,17455 44135,17455 "/>
  <path id="2" class="fil0" d="M44528 18436l-112 0 427 -1228 101 0 424 1228 -114 0 -133 -376 -458 0 -135 376zm366 -1072l-198 589 394 0 -196 -589z"/>
  <path id="3" class="fil0" d="M45554 17511c0,-55 11,-102 31,-142 21,-39 50,-72 88,-98 37,-26 81,-45 133,-58 51,-12 107,-18 168,-18 63,0 118,5 164,17 47,11 86,26 118,44 32,18 58,38 77,60 19,22 34,43 44,63l-98 46c-25,-47 -65,-80 -120,-97 -54,-18 -116,-27 -185,-27 -45,0 -87,4 -125,11 -39,8 -72,20 -99,36 -28,16 -50,38 -66,65 -15,26 -23,59 -23,99l0 619c0,44 9,79 28,106 18,28 43,49 73,65 29,16 63,27 100,32 38,6 75,9 112,9 37,0 75,-3 113,-9 37,-5 71,-16 100,-32 30,-16 54,-38 72,-65 19,-28 28,-64 28,-107l0 -282 -313 0 0 -106 420 0 0 387c0,53 -10,100 -31,139 -20,40 -48,73 -85,100 -37,27 -81,48 -132,61 -51,14 -109,20 -172,20 -61,0 -117,-6 -168,-18 -52,-13 -96,-32 -133,-58 -38,-26 -67,-59 -88,-99 -20,-40 -31,-88 -31,-145l0 -618z"/>
  <polygon id="4" class="fil0" points="47488,17315 46789,17315 46789,17742 47291,17742 47291,17848 46789,17848 46789,18329 47488,18329 47488,18436 46682,18436 46682,17208 47488,17208 "/>
  <polygon id="5" class="fil0" points="47744,18436 47744,17208 47859,17208 48490,18245 48490,17208 48597,17208 48597,18436 48480,18436 47850,17400 47850,18436 "/>
  <path id="6" class="fil0" d="M48885 17511c0,-56 11,-104 32,-144 21,-41 51,-73 88,-99 37,-25 82,-44 133,-56 51,-11 107,-17 167,-17 87,0 164,13 231,39 67,26 120,72 160,140l-97 48c-26,-49 -64,-81 -116,-97 -52,-16 -112,-24 -178,-24 -45,0 -87,4 -125,11 -39,8 -72,20 -100,36 -27,16 -49,38 -65,65 -16,26 -23,59 -23,99l0 619c0,42 9,76 27,103 19,27 43,49 73,66 30,16 64,27 101,33 37,7 75,10 112,10 68,0 126,-8 176,-24 50,-16 89,-48 118,-96l94 50c-35,64 -87,110 -155,136 -69,27 -146,40 -233,40 -61,0 -117,-6 -169,-19 -51,-13 -95,-32 -133,-58 -37,-26 -66,-60 -87,-100 -21,-41 -31,-88 -31,-143l0 -618z"/>
  <polygon id="7" class="fil0" points="50756,17315 50057,17315 50057,17742 50560,17742 50560,17848 50057,17848 50057,18329 50756,18329 50756,18436 49950,18436 49950,17208 50756,17208 "/>
  <path id="8" class="fil1" d="M51520 17208l420 0c70,0 129,8 177,25 49,16 88,39 119,69 30,30 52,67 66,109 14,43 20,91 20,144 0,115 -30,203 -91,262 -61,59 -159,89 -292,89l-313 0 0 530 -106 0 0 -1228zm419 107l-313 0 0 484 313 0c47,0 88,-4 123,-12 35,-8 63,-21 86,-39 22,-19 39,-44 51,-75 11,-31 17,-70 17,-118 0,-55 -9,-99 -25,-131 -16,-32 -38,-56 -64,-73 -26,-16 -55,-26 -88,-30 -33,-4 -66,-6 -100,-6z"/>
  <path id="9" class="fil1" d="M53365 17513l0 615c0,107 -35,187 -107,241 -72,54 -176,80 -313,80 -136,0 -240,-26 -312,-80 -72,-54 -107,-134 -107,-241l0 -615c0,-104 35,-183 107,-237 72,-54 176,-81 312,-81 137,0 241,26 313,79 72,53 107,133 107,239zm-106 621l0 -626c0,-14 -2,-33 -6,-57 -4,-23 -16,-45 -36,-68 -20,-22 -51,-41 -93,-57 -42,-16 -102,-25 -179,-25 -77,0 -138,9 -180,25 -42,16 -73,36 -93,58 -20,23 -31,46 -35,70 -3,24 -5,42 -5,56l0 622c0,14 2,33 5,56 4,24 15,47 35,70 20,23 51,42 93,59 42,17 103,26 180,26 77,0 137,-8 179,-25 42,-16 73,-36 93,-58 20,-23 32,-46 36,-70 4,-24 6,-42 6,-56z"/>
  <path id="10" class="fil1" d="M54510 17208l0 923c0,54 -10,101 -30,141 -21,41 -49,74 -85,100 -36,26 -80,45 -130,58 -51,13 -107,19 -168,19 -63,0 -121,-6 -174,-19 -52,-13 -97,-33 -134,-59 -38,-27 -67,-60 -87,-99 -21,-40 -32,-87 -32,-141l0 -923 107 0 0 924c0,39 8,71 23,98 15,27 37,48 65,65 28,17 62,29 101,37 39,7 83,11 130,11 36,0 73,-3 109,-9 36,-5 69,-16 98,-32 30,-16 54,-37 72,-65 19,-27 28,-62 28,-105l0 -924 107 0z"/>
  <polygon id="11" class="fil1" points="55538,18436 54815,18436 54815,17208 54922,17208 54922,18329 55538,18329 "/>
  <polygon id="12" class="fil1" points="55833,17207 55833,18436 55726,18436 55726,17207 "/>
  <polygon id="13" class="fil1" points="56945,17315 56246,17315 56246,17742 56749,17742 56749,17848 56246,17848 56246,18329 56945,18329 56945,18436 56139,18436 56139,17208 56945,17208 "/>
  <path class="fil2" d="M12214 8706l119 0 0 1203 -119 0 0 -1203zm84 1092l688 0 0 111 -688 0 0 -111z"/>
  <polygon id="1" class="fil2" points="13118,8706 13254,8706 13254,8916 13118,9067 "/>
  <path id="2" class="fil2" d="M13730 8706l144 0 443 1203 -132 0 -383 -1078 -383 1078 -132 0 443 -1203zm-239 800l633 0 0 111 -633 0 0 -111z"/>
  <path id="3" class="fil2" d="M15255 9294l0 177c0,101 -16,184 -47,251 -31,66 -78,116 -140,149 -62,33 -141,50 -234,50 -95,0 -174,-16 -237,-47 -63,-31 -110,-78 -142,-141 -31,-62 -47,-141 -47,-235l0 -355c0,-100 16,-184 47,-250 31,-66 78,-116 140,-149 62,-33 140,-50 234,-50 78,0 144,13 201,40 56,26 102,66 138,118 36,53 61,119 77,199l0 0 -129 0 0 0c-14,-55 -34,-100 -60,-137 -26,-36 -57,-64 -95,-82 -38,-18 -82,-27 -132,-27 -67,0 -123,12 -168,37 -45,26 -78,63 -100,113 -23,50 -34,112 -34,188l0 355c0,70 11,128 34,174 23,46 57,80 102,104 45,23 102,34 171,34 67,0 121,-12 165,-35 43,-24 75,-60 97,-110 22,-50 33,-114 33,-191l0 -69 -291 0 0 -111 417 0z"/>
  <path id="4" class="fil2" d="M15511 8706l119 0 0 1203 -119 0 0 -1203zm82 1092l690 0 0 111 -690 0 0 -111zm0 -542l599 0 0 111 -599 0 0 -111zm0 -550l690 0 0 111 -690 0 0 -111z"/>
  <polygon id="5" class="fil2" points="16523,8706 16643,8706 17341,9790 17292,9757 17292,8706 17411,8706 17411,9908 17289,9908 16578,8817 16642,8864 16642,9908 16523,9908 "/>
  <path id="6" class="fil2" d="M18102 9921c-83,0 -156,-18 -219,-55 -64,-37 -112,-90 -147,-157 -35,-68 -52,-147 -52,-236l0 -330c0,-89 17,-168 52,-236 35,-67 83,-120 147,-157 63,-37 136,-56 219,-56 69,0 133,14 190,42 58,28 107,68 145,120 39,51 66,111 79,179l0 0 -119 0 0 0c-13,-45 -35,-85 -65,-120 -30,-35 -65,-62 -105,-81 -40,-19 -82,-29 -125,-29 -59,0 -112,14 -157,42 -45,28 -80,68 -105,119 -25,51 -37,110 -37,177l0 330c0,67 12,126 37,177 25,51 60,91 105,118 45,28 98,42 157,42 43,0 85,-9 125,-27 40,-18 75,-45 105,-79 30,-35 52,-76 65,-123l0 0 119 0 0 0c-13,67 -40,127 -79,178 -39,52 -88,92 -145,120 -58,28 -122,42 -190,42z"/>
  <path id="7" class="fil2" d="M18739 8706l120 0 0 1203 -120 0 0 -1203zm82 1092l691 0 0 111 -691 0 0 -111zm0 -542l600 0 0 111 -600 0 0 -111zm0 -550l691 0 0 111 -691 0 0 -111z"/>
  <path id="8" class="fil3" d="M20293 9332l384 0c47,0 89,-11 125,-33 35,-21 63,-51 83,-90 19,-38 29,-83 29,-134l0 0c0,-51 -10,-96 -29,-135 -20,-39 -48,-69 -83,-90 -36,-22 -78,-33 -125,-33l-384 0 0 -111 379 0c71,0 134,16 189,46 55,31 97,74 127,130 30,56 45,120 45,193l0 0c0,73 -15,137 -45,193 -30,55 -72,98 -127,128 -55,31 -118,46 -189,46l-379 0 0 -110zm-87 -626l119 0 0 1203 -119 0 0 -1203z"/>
  <path id="9" class="fil3" d="M21642 9921c-90,0 -166,-17 -229,-52 -63,-35 -111,-85 -144,-151 -33,-66 -50,-146 -50,-240l0 -341c0,-93 17,-173 50,-239 33,-67 81,-117 144,-152 63,-34 139,-52 229,-52 89,0 165,18 228,52 63,35 112,85 145,152 33,66 49,146 49,239l0 341c0,94 -16,174 -49,240 -33,66 -82,116 -145,151 -63,35 -139,52 -228,52zm0 -111c64,0 118,-12 164,-38 45,-26 80,-63 104,-112 23,-48 35,-107 35,-176l0 -353c0,-68 -12,-127 -35,-176 -24,-49 -59,-86 -104,-112 -46,-25 -100,-38 -164,-38 -64,0 -119,13 -164,38 -46,26 -81,63 -104,112 -24,49 -36,108 -36,176l0 353c0,69 12,128 36,176 23,49 58,86 104,112 45,26 100,38 164,38z"/>
  <path id="10" class="fil3" d="M22709 9921c-94,0 -172,-16 -235,-49 -62,-32 -109,-81 -140,-146 -31,-65 -46,-146 -46,-244l0 -776 119 0 0 782c0,105 25,184 75,237 50,52 126,79 227,79 101,0 178,-27 228,-79 51,-53 76,-132 76,-237l0 -782 119 0 0 776c0,98 -15,179 -46,244 -31,65 -79,114 -141,146 -63,33 -142,49 -236,49z"/>
  <path id="11" class="fil3" d="M23397 8706l119 0 0 1203 -119 0 0 -1203zm84 1092l688 0 0 111 -688 0 0 -111z"/>
  <polygon id="12" class="fil3" points="24511,9909 24392,9909 24392,8706 24511,8706 "/>
  <path id="13" class="fil3" d="M24834 8706l119 0 0 1203 -119 0 0 -1203zm82 1092l690 0 0 111 -690 0 0 -111zm0 -542l599 0 0 111 -599 0 0 -111zm0 -550l690 0 0 111 -690 0 0 -111z"/>
  <path class="fil4" d="M10023 6962c1335,764 1798,2465 1035,3800 -764,1335 -2465,1798 -3800,1035 -1335,-763 -1798,-2465 -1035,-3800 764,-1335 2465,-1798 3800,-1035zm-374 654c974,557 1313,1798 756,2772 -558,975 -1799,1313 -2773,756 -974,-557 -1313,-1799 -755,-2773 557,-974 1798,-1312 2772,-755z"/>
  <path class="fil5" d="M11263 7227c-211,61 -396,91 -600,150 282,223 466,537 549,767 238,-400 357,-597 359,-602 137,-394 -239,-335 -308,-315z"/>
  <polygon class="fil4" points="9166,11583 9310,12084 6285,12411 "/>
  <path class="fil4" d="M6299 7877l587 333 -1912 3372c41,-193 720,-2731 1325,-3705z"/>
  <path class="fil5" d="M5724 11605c297,170 400,549 231,846 -170,297 -549,400 -846,230 -297,-170 -401,-548 -231,-846 170,-297 549,-400 846,-230z"/>
  <polygon class="fil4 str0" points="12855,10376 24965,10376 24965,11307 12855,11307 "/>
  <path class="fil6" d="M13831 10616l54 0 167 451 -69 0 -125 -364 -125 364 -68 0 166 -451zm-89 292l237 0 0 60 -237 0 0 -60z"/>
  <polygon id="1" class="fil6" points="14328,10616 14385,10616 14606,10965 14598,10973 14598,10616 14661,10616 14661,11067 14603,11067 14383,10724 14390,10716 14390,11067 14328,11067 "/>
  <path id="2" class="fil6" d="M15097 10616l54 0 166 451 -68 0 -125 -364 -125 364 -68 0 166 -451zm-90 292l238 0 0 60 -238 0 0 -60z"/>
  <path id="3" class="fil6" d="M15593 10616l64 0 0 451 -64 0 0 -451zm32 391l258 0 0 60 -258 0 0 -60z"/>
  <polygon id="4" class="fil6" points="16279,10884 16279,11067 16216,11067 16216,10884 16078,10616 16149,10616 16247,10820 16346,10616 16416,10616 "/>
  <path id="5" class="fil6" d="M16800 11072c-21,0 -42,-2 -61,-6 -20,-4 -38,-11 -55,-19 -17,-8 -33,-19 -47,-31l0 0 39 -48 0 0c17,15 36,26 57,33 21,8 43,11 67,11 33,0 58,-6 76,-18 18,-12 27,-29 27,-51l0 0c0,-16 -4,-29 -12,-38 -8,-9 -19,-16 -32,-20 -13,-5 -29,-9 -50,-13 0,0 -1,0 -2,0 0,0 -1,0 -2,0l-4 -1c-31,-5 -55,-11 -74,-18 -19,-6 -35,-18 -49,-35 -13,-17 -20,-42 -20,-74l0 0c0,-28 6,-52 19,-72 12,-19 31,-34 55,-45 24,-10 52,-15 86,-15 16,0 32,2 48,5 15,4 31,9 46,16 15,7 30,15 45,26l0 0 -36 50 0 0c-17,-13 -34,-22 -52,-28 -17,-7 -34,-10 -51,-10 -31,0 -55,6 -72,19 -17,12 -25,29 -25,52l0 0c0,16 4,28 13,37 9,9 20,15 33,20 13,4 31,8 55,13 0,0 1,0 2,0 1,0 1,0 2,1 1,0 2,0 4,0 1,0 2,1 3,1 27,5 50,12 68,20 19,7 34,20 46,37 13,17 19,40 19,70l0 0c0,28 -7,51 -20,71 -13,19 -32,34 -56,45 -25,10 -55,15 -90,15z"/>
  <path id="6" class="fil6" d="M17257 10616l64 0 0 451 -64 0 0 -451zm31 391l259 0 0 60 -259 0 0 -60zm0 -194l225 0 0 60 -225 0 0 -60zm0 -197l259 0 0 61 -259 0 0 -61z"/>
  <path id="7" class="fil6" d="M18417 10888c-14,-15 -26,-31 -36,-47 -11,-16 -18,-33 -24,-51 -5,-17 -8,-35 -8,-53 0,-40 11,-70 32,-92 21,-22 51,-32 89,-32 38,0 68,10 89,31 21,21 31,50 31,88l0 6 -63 0 0 -6c0,-18 -5,-33 -15,-43 -10,-10 -24,-15 -42,-15 -18,0 -32,6 -42,17 -10,10 -15,26 -15,46 0,12 1,24 5,37 4,13 10,25 18,38 7,13 17,25 27,36l206 219 -80 0 -172 -179zm31 -19c-26,0 -46,6 -60,19 -14,13 -21,31 -21,55 0,23 7,40 22,53 15,13 36,19 63,19 26,0 48,-7 67,-21 19,-13 32,-34 42,-60 10,-26 15,-58 15,-95l60 0c0,49 -8,91 -23,126 -16,35 -38,61 -68,79 -29,19 -65,28 -106,28 -29,0 -53,-5 -73,-15 -20,-10 -35,-25 -45,-44 -11,-20 -16,-43 -16,-70 0,-37 10,-67 31,-89 20,-22 48,-35 85,-38l27 53z"/>
  <path id="8" class="fil6" d="M19554 11072c-22,0 -43,-2 -62,-6 -19,-4 -37,-11 -54,-19 -17,-8 -33,-19 -48,-31l0 0 40 -48 0 0c17,15 36,26 56,33 21,8 44,11 68,11 32,0 58,-6 76,-18 18,-12 27,-29 27,-51l0 0c0,-16 -4,-29 -13,-38 -8,-9 -18,-16 -31,-20 -13,-5 -30,-9 -50,-13 -1,0 -2,0 -2,0 -1,0 -2,0 -2,0l-5 -1c-30,-5 -55,-11 -74,-18 -18,-6 -35,-18 -48,-35 -14,-17 -20,-42 -20,-74l0 0c0,-28 6,-52 19,-72 12,-19 30,-34 54,-45 24,-10 53,-15 87,-15 16,0 32,2 47,5 16,4 31,9 47,16 15,7 30,15 44,26l0 0 -36 50 0 0c-17,-13 -34,-22 -51,-28 -17,-7 -34,-10 -51,-10 -31,0 -55,6 -72,19 -17,12 -26,29 -26,52l0 0c0,16 5,28 14,37 8,9 19,15 32,20 14,4 32,8 55,13 1,0 2,0 3,0 0,0 1,0 2,1 1,0 2,0 3,0 1,0 3,1 4,1 27,5 50,12 68,20 18,7 34,20 46,37 12,17 18,40 18,70l0 0c0,28 -6,51 -19,71 -13,19 -32,34 -57,45 -25,10 -54,15 -89,15z"/>
  <path id="9" class="fil6" d="M20083 10653l63 0 0 414 -63 0 0 -414zm-128 -37l318 0 0 61 -318 0 0 -61z"/>
  <path id="10" class="fil6" d="M20571 10816l154 0c12,0 22,-2 32,-8 9,-6 16,-14 21,-25 5,-11 8,-23 8,-37l0 0c0,-14 -3,-26 -8,-36 -5,-11 -12,-19 -21,-25 -9,-6 -20,-9 -32,-9l-154 0 0 -60 151 0c26,0 49,5 69,16 20,11 35,26 46,46 11,20 16,43 16,68l0 0c0,26 -5,49 -16,69 -11,19 -27,35 -46,45 -20,11 -43,17 -69,17l-151 0 0 -61zm-28 -200l64 0 0 451 -64 0 0 -451zm151 247l63 -15 115 219 -75 0 -103 -204z"/>
  <path id="11" class="fil6" d="M21273 10616l53 0 167 451 -69 0 -125 -364 -124 364 -69 0 167 -451zm-90 292l237 0 0 60 -237 0 0 -60z"/>
  <path id="12" class="fil6" d="M21822 10653l63 0 0 414 -63 0 0 -414zm-128 -37l319 0 0 61 -319 0 0 -61z"/>
  <path id="13" class="fil6" d="M22283 10616l63 0 0 451 -63 0 0 -451zm30 391l259 0 0 60 -259 0 0 -60zm0 -194l225 0 0 60 -225 0 0 -60zm0 -197l259 0 0 61 -259 0 0 -61z"/>
  <path id="14" class="fil6" d="M23178 10824l0 79c0,34 -6,63 -19,89 -13,25 -32,45 -56,59 -23,14 -51,21 -82,21 -32,0 -60,-7 -84,-20 -24,-13 -43,-31 -56,-55 -14,-25 -20,-52 -20,-84l0 -133c0,-33 6,-63 19,-88 13,-26 32,-45 56,-59 24,-14 51,-21 83,-21 26,0 49,5 71,16 22,11 40,27 55,47 15,21 24,44 30,71l0 0 -69 0 0 0c-4,-15 -10,-28 -19,-39 -9,-11 -19,-19 -31,-25 -12,-6 -24,-9 -37,-9 -19,0 -35,5 -49,14 -14,9 -25,21 -33,37 -7,16 -11,35 -11,56l0 133c0,20 4,37 11,51 8,15 19,26 34,34 14,8 31,12 50,12 18,0 34,-4 49,-12 14,-9 24,-21 32,-37 8,-16 12,-35 12,-57l0 -19 -92 0 0 -61 156 0z"/>
  <polygon id="15" class="fil6" points="23546,11067 23482,11067 23482,10616 23546,10616 "/>
  <path id="16" class="fil6" d="M23865 10616l64 0 0 451 -64 0 0 -451zm31 391l259 0 0 60 -259 0 0 -60zm0 -194l225 0 0 60 -225 0 0 -60zm0 -197l259 0 0 61 -259 0 0 -61z"/>
  <path class="fil4" d="M-4265 8199c1335,764 1799,2465 1035,3800 -763,1335 -2464,1799 -3799,1035 -1335,-763 -1799,-2465 -1035,-3800 763,-1335 2464,-1798 3799,-1035zm-373 654c974,557 1312,1798 755,2772 -557,975 -1798,1313 -2773,756 -974,-557 -1312,-1799 -755,-2773 557,-974 1798,-1312 2773,-755z"/>
  <path class="fil5" d="M-3024 8464c-212,61 -396,91 -601,150 282,223 466,537 549,767 239,-400 358,-597 359,-602 137,-394 -239,-335 -307,-315z"/>
  <polygon class="fil4" points="-5122,12820 -4977,13321 -8003,13648 "/>
  <path class="fil4" d="M-7988 9114l586 333 -1911 3372c40,-193 720,-2731 1325,-3705z"/>
  <path class="fil5" d="M-8491 12899c297,170 400,549 230,846 -170,297 -548,400 -846,231 -297,-170 -400,-549 -230,-846 170,-297 549,-401 846,-231z"/>
  <path class="fil2" d="M-13212 14768l119 0 0 1202 -119 0 0 -1202zm84 1091l688 0 0 111 -688 0 0 -111z"/>
  <polygon id="1" class="fil2" points="-12308,14768 -12172,14768 -12172,14978 -12308,15128 "/>
  <path id="2" class="fil2" d="M-11696 14768l144 0 443 1202 -132 0 -383 -1077 -383 1077 -132 0 443 -1202zm-239 799l632 0 0 111 -632 0 0 -111z"/>
  <path id="3" class="fil2" d="M-10171 15355l0 177c0,101 -16,184 -47,251 -31,67 -78,117 -140,150 -63,33 -141,49 -234,49 -95,0 -174,-16 -237,-47 -63,-31 -111,-78 -142,-141 -32,-62 -47,-141 -47,-235l0 -355c0,-100 15,-184 47,-250 31,-66 77,-116 140,-149 62,-33 140,-50 234,-50 77,0 144,13 201,40 56,27 102,66 138,119 36,52 61,119 76,198l0 0 -128 0 0 0c-15,-55 -35,-100 -60,-137 -26,-36 -58,-63 -95,-82 -38,-18 -82,-27 -132,-27 -68,0 -124,13 -168,38 -45,25 -78,62 -101,112 -22,50 -33,113 -33,188l0 355c0,70 11,128 34,174 23,46 56,81 102,104 45,23 102,34 171,34 66,0 121,-11 165,-35 43,-24 75,-60 97,-110 22,-50 33,-113 33,-191l0 -69 -291 0 0 -111 417 0z"/>
  <path id="4" class="fil2" d="M-9915 14768l119 0 0 1202 -119 0 0 -1202zm81 1091l691 0 0 111 -691 0 0 -111zm0 -542l600 0 0 111 -600 0 0 -111zm0 -549l691 0 0 111 -691 0 0 -111z"/>
  <polygon id="5" class="fil2" points="-8903,14768 -8783,14768 -8085,15851 -8134,15818 -8134,14768 -8015,14768 -8015,15969 -8137,15969 -8849,14878 -8784,14925 -8784,15969 -8903,15969 "/>
  <path id="6" class="fil2" d="M-7324 15982c-83,0 -156,-18 -220,-55 -63,-37 -112,-89 -146,-157 -35,-68 -52,-147 -52,-236l0 -330c0,-89 17,-168 52,-235 34,-68 83,-121 146,-158 64,-37 137,-56 220,-56 69,0 132,14 190,43 58,27 106,67 145,119 39,52 65,111 79,179l0 0 -119 0 0 0c-13,-45 -35,-85 -65,-120 -30,-35 -65,-62 -105,-81 -40,-19 -82,-29 -125,-29 -60,0 -112,14 -157,42 -45,28 -80,68 -105,119 -25,51 -37,110 -37,177l0 330c0,67 12,127 37,177 25,51 60,91 105,119 45,28 97,41 157,41 43,0 85,-9 125,-27 40,-18 75,-45 105,-79 30,-35 52,-76 65,-123l0 0 119 0 0 0c-14,67 -40,127 -79,179 -39,51 -88,91 -146,119 -58,28 -121,42 -189,42z"/>
  <path id="7" class="fil2" d="M-6687 14768l119 0 0 1202 -119 0 0 -1202zm82 1091l691 0 0 111 -691 0 0 -111zm0 -542l600 0 0 111 -600 0 0 -111zm0 -549l691 0 0 111 -691 0 0 -111z"/>
  <path id="8" class="fil3" d="M-5133 15393l384 0c47,0 89,-11 124,-32 36,-22 64,-52 83,-91 20,-38 30,-83 30,-134l0 0c0,-51 -10,-96 -30,-135 -19,-39 -47,-69 -83,-90 -35,-22 -77,-32 -124,-32l-384 0 0 -111 379 0c71,0 134,15 189,46 54,30 97,73 127,129 30,56 45,120 45,193l0 0c0,73 -15,137 -45,193 -30,55 -73,98 -127,129 -55,30 -118,46 -189,46l-379 0 0 -111zm-87 -625l119 0 0 1202 -119 0 0 -1202z"/>
  <path id="9" class="fil3" d="M-3784 15982c-90,0 -166,-17 -229,-52 -63,-35 -111,-85 -144,-151 -34,-66 -50,-146 -50,-240l0 -340c0,-94 16,-174 50,-240 33,-66 81,-117 144,-152 63,-34 139,-52 229,-52 89,0 165,18 228,52 63,35 111,86 144,152 33,66 50,146 50,240l0 340c0,94 -17,174 -50,240 -33,66 -81,116 -144,151 -63,35 -139,52 -228,52zm0 -111c63,0 118,-12 164,-38 45,-26 80,-63 103,-111 24,-49 36,-108 36,-177l0 -352c0,-69 -12,-128 -36,-177 -23,-49 -58,-86 -103,-112 -46,-25 -101,-38 -164,-38 -64,0 -119,13 -165,38 -45,26 -80,63 -104,112 -23,49 -35,108 -35,177l0 352c0,69 12,128 35,177 24,48 59,85 104,111 46,26 101,38 165,38z"/>
  <path id="10" class="fil3" d="M-2717 15982c-94,0 -172,-16 -235,-49 -62,-32 -109,-81 -140,-145 -31,-65 -47,-147 -47,-245l0 -775 119 0 0 781c0,105 26,184 75,237 51,53 127,79 228,79 101,0 177,-26 228,-79 51,-53 76,-132 76,-237l0 -781 119 0 0 775c0,98 -15,180 -47,245 -31,64 -78,113 -140,145 -63,33 -142,49 -236,49z"/>
  <path id="11" class="fil3" d="M-2029 14768l119 0 0 1202 -119 0 0 -1202zm84 1091l688 0 0 111 -688 0 0 -111z"/>
  <polygon id="12" class="fil3" points="-915,15970 -1034,15970 -1034,14768 -915,14768 "/>
  <path id="13" class="fil3" d="M-592 14768l119 0 0 1202 -119 0 0 -1202zm81 1091l691 0 0 111 -691 0 0 -111zm0 -542l600 0 0 111 -600 0 0 -111zm0 -549l691 0 0 111 -691 0 0 -111z"/>
  <polygon class="fil4 str0" points="-12715,16844 -606,16844 -606,17775 -12715,17775 "/>
  <path class="fil6" d="M-11739 17084l54 0 166 451 -68 0 -125 -364 -125 364 -68 0 166 -451zm-90 292l238 0 0 60 -238 0 0 -60z"/>
  <polygon id="1" class="fil6" points="-11243,17084 -11185,17084 -10965,17432 -10972,17440 -10972,17084 -10910,17084 -10910,17534 -10968,17534 -11187,17191 -11180,17183 -11180,17534 -11243,17534 "/>
  <path id="2" class="fil6" d="M-10473 17084l54 0 166 451 -68 0 -125 -364 -125 364 -69 0 167 -451zm-90 292l237 0 0 60 -237 0 0 -60z"/>
  <path id="3" class="fil6" d="M-9977 17084l63 0 0 451 -63 0 0 -451zm32 391l258 0 0 60 -258 0 0 -60z"/>
  <polygon id="4" class="fil6" points="-9291,17352 -9291,17535 -9354,17535 -9354,17352 -9492,17084 -9421,17084 -9323,17287 -9224,17084 -9154,17084 "/>
  <path id="5" class="fil6" d="M-8770 17539c-22,0 -42,-2 -62,-6 -19,-4 -37,-10 -54,-18 -17,-9 -33,-19 -47,-31l0 0 39 -49 0 0c17,15 36,26 57,34 20,7 43,11 67,11 33,0 58,-6 76,-18 18,-12 27,-29 27,-52l0 0c0,-16 -4,-28 -12,-37 -9,-9 -19,-16 -32,-21 -13,-4 -30,-8 -50,-12 -1,0 -1,0 -2,0 -1,0 -2,0 -2,-1l-5 0c-30,-6 -55,-12 -73,-18 -19,-7 -36,-18 -49,-36 -13,-17 -20,-41 -20,-73l0 -1c0,-27 6,-51 19,-71 12,-20 30,-35 54,-45 24,-11 53,-16 87,-16 16,0 32,2 47,6 16,3 31,8 47,15 15,7 30,16 44,26l0 0 -36 51 0 0c-17,-13 -34,-22 -51,-29 -17,-6 -34,-9 -51,-9 -31,0 -55,6 -72,18 -17,13 -25,30 -25,53l0 0c0,15 4,27 13,36 8,9 19,16 33,20 13,4 31,9 54,13 1,0 2,1 3,1 0,0 1,0 2,0 1,0 2,1 3,1 2,0 3,0 4,0 27,6 50,13 68,20 18,8 34,20 46,37 12,17 18,41 18,70l0 1c0,27 -6,51 -19,70 -13,20 -32,35 -57,45 -24,10 -54,15 -89,15z"/>
  <path id="6" class="fil6" d="M-8313 17084l63 0 0 451 -63 0 0 -451zm31 391l259 0 0 60 -259 0 0 -60zm0 -194l225 0 0 60 -225 0 0 -60zm0 -197l259 0 0 60 -259 0 0 -60z"/>
  <path id="7" class="fil6" d="M-7153 17356c-14,-16 -27,-31 -37,-48 -10,-16 -18,-33 -23,-50 -5,-18 -8,-36 -8,-54 0,-39 10,-70 32,-91 21,-22 50,-33 89,-33 38,0 68,11 89,31 21,21 31,51 31,89l0 6 -63 0 0 -6c0,-19 -5,-33 -15,-43 -10,-10 -24,-15 -42,-15 -19,0 -33,5 -43,16 -10,11 -15,26 -15,46 0,12 2,25 6,38 4,12 10,25 17,38 8,12 17,24 28,36l206 219 -80 0 -172 -179zm30 -19c-26,0 -46,6 -60,19 -14,13 -21,31 -21,54 0,23 8,41 23,54 15,12 36,19 63,19 26,0 48,-7 67,-21 18,-14 32,-34 42,-60 9,-27 14,-59 14,-96l60 0c0,49 -7,91 -23,126 -15,35 -38,62 -67,80 -30,18 -65,27 -107,27 -28,0 -52,-5 -72,-15 -20,-10 -35,-25 -45,-44 -11,-19 -16,-43 -16,-70 0,-37 10,-66 30,-88 20,-22 49,-35 86,-39l26 54z"/>
  <path id="8" class="fil6" d="M-6017 17539c-21,0 -42,-2 -61,-6 -20,-4 -38,-10 -55,-18 -17,-9 -32,-19 -47,-31l0 0 39 -49 0 0c18,15 37,26 57,34 21,7 43,11 67,11 33,0 58,-6 76,-18 18,-12 27,-29 27,-52l0 0c0,-16 -4,-28 -12,-37 -8,-9 -19,-16 -31,-21 -13,-4 -30,-8 -51,-12 0,0 -1,0 -2,0 0,0 -1,0 -2,-1l-4 0c-30,-6 -55,-12 -74,-18 -19,-7 -35,-18 -48,-36 -14,-17 -21,-41 -21,-73l0 -1c0,-27 7,-51 19,-71 13,-20 31,-35 55,-45 24,-11 53,-16 86,-16 17,0 32,2 48,6 16,3 31,8 46,15 15,7 30,16 45,26l0 0 -36 51 0 0c-17,-13 -34,-22 -51,-29 -17,-6 -34,-9 -52,-9 -30,0 -54,6 -71,18 -17,13 -26,30 -26,53l0 0c0,15 4,27 13,36 9,9 20,16 33,20 13,4 31,9 55,13 1,0 1,1 2,1 1,0 2,0 3,0 1,0 2,1 3,1 1,0 2,0 3,0 28,6 50,13 69,20 18,8 33,20 46,37 12,17 18,41 18,70l0 1c0,27 -6,51 -19,70 -14,20 -32,35 -57,45 -25,10 -55,15 -90,15z"/>
  <path id="9" class="fil6" d="M-5488 17121l64 0 0 414 -64 0 0 -414zm-127 -37l318 0 0 60 -318 0 0 -60z"/>
  <path id="10" class="fil6" d="M-4999 17284l153 0c12,0 23,-3 32,-9 10,-6 17,-14 22,-24 5,-11 7,-23 7,-37l0 0c0,-14 -2,-26 -7,-37 -5,-11 -12,-19 -22,-25 -9,-5 -19,-8 -32,-8l-153 0 0 -60 151 0c26,0 49,5 69,16 19,10 35,26 45,46 11,19 17,42 17,68l0 0c0,26 -6,48 -17,68 -11,20 -26,35 -46,46 -19,11 -42,16 -68,16l-151 0 0 -60zm-28 -200l63 0 0 451 -63 0 0 -451zm150 246l63 -14 116 219 -75 0 -104 -205z"/>
  <path id="11" class="fil6" d="M-4298 17084l54 0 166 451 -68 0 -125 -364 -125 364 -68 0 166 -451zm-89 292l237 0 0 60 -237 0 0 -60z"/>
  <path id="12" class="fil6" d="M-3748 17121l63 0 0 414 -63 0 0 -414zm-128 -37l318 0 0 60 -318 0 0 -60z"/>
  <path id="13" class="fil6" d="M-3288 17084l64 0 0 451 -64 0 0 -451zm31 391l259 0 0 60 -259 0 0 -60zm0 -194l225 0 0 60 -225 0 0 -60zm0 -197l259 0 0 60 -259 0 0 -60z"/>
  <path id="14" class="fil6" d="M-2392 17292l0 79c0,33 -6,63 -19,88 -13,26 -32,45 -56,59 -24,14 -51,21 -83,21 -32,0 -60,-6 -84,-19 -24,-13 -42,-32 -56,-56 -13,-24 -19,-52 -19,-83l0 -133c0,-34 6,-63 19,-89 13,-25 32,-45 55,-59 24,-14 52,-21 83,-21 26,0 50,6 72,17 22,11 40,27 55,47 14,20 24,44 29,70l0 0 -68 0 0 0c-4,-15 -10,-28 -19,-39 -9,-10 -19,-19 -31,-24 -12,-6 -25,-9 -38,-9 -18,0 -35,4 -49,13 -14,9 -25,22 -32,38 -8,16 -12,34 -12,56l0 133c0,19 4,36 12,51 8,14 19,25 33,34 15,8 31,12 50,12 19,0 35,-5 49,-13 14,-8 25,-20 33,-36 7,-16 11,-35 11,-57l0 -20 -91 0 0 -60 156 0z"/>
  <polygon id="15" class="fil6" points="-2025,17535 -2088,17535 -2088,17084 -2025,17084 "/>
  <path id="16" class="fil6" d="M-1705 17084l63 0 0 451 -63 0 0 -451zm31 391l259 0 0 60 -259 0 0 -60zm0 -194l224 0 0 60 -224 0 0 -60zm0 -197l259 0 0 60 -259 0 0 -60z"/>
 </g>
</svg>
