<?xml version="1.0" encoding="UTF-8" standalone="no"?>
<!-- Creator: CorelDRAW X7 -->

<svg
   xml:space="preserve"
   width="282.67621mm"
   height="83.792786mm"
   version="1.1"
   style="clip-rule:evenodd;fill-rule:evenodd;image-rendering:optimizeQuality;shape-rendering:geometricPrecision;text-rendering:geometricPrecision"
   viewBox="0 0 28267.621 8379.2786"
   id="svg196"
   xmlns="http://www.w3.org/2000/svg"
   xmlns:svg="http://www.w3.org/2000/svg">
 <defs
   id="defs4"><style
     type="text/css"
     id="style2">
   <![CDATA[
    .str0 {stroke:black;stroke-width:20}
    .fil5 {fill:#96989A}
    .fil4 {fill:#282829}
    .fil6 {fill:#FEFEFE;fill-rule:nonzero}
    .fil2 {fill:#A9ABAE;fill-rule:nonzero}
    .fil0 {fill:#96989A;fill-rule:nonzero}
    .fil3 {fill:#282829;fill-rule:nonzero}
    .fil1 {fill:black;fill-rule:nonzero}
   ]]>
  </style></defs>
 <g
   id="Plan_x0020_1"
   transform="translate(-480.02388,-2815.3817)">
  <metadata
   id="CorelCorpID_0Corel-Layer" />
  
  
  
  
  
  
  
  
  
  
  
  
  
  
  
  
  
  
  
  
  
  
  
  
  
  
  
  
  
  
  
  
  
  
  
  
  
  
  
  
  
  
  
  
  
  
  
  
  
  
  
  
  
  
  
  
  
  
  
  
  
  
  
  
  
  
  
  
  
  
  
  
  
  
  
  
  
  
  <g
   id="g395"
   transform="matrix(1.3583862,0,0,1.3583862,-6035.1937,-6142.3648)"><path
     class="fil2"
     d="m 12214,8706 h 119 v 1203 h -119 z m 84,1092 h 688 v 111 h -688 z"
     id="path50" /><polygon
     id="polygon52"
     class="fil2"
     points="13254,8916 13118,9067 13118,8706 13254,8706 " /><path
     id="path54"
     class="fil2"
     d="m 13730,8706 h 144 l 443,1203 h -132 l -383,-1078 -383,1078 h -132 z m -239,800 h 633 v 111 h -633 z" /><path
     id="path56"
     class="fil2"
     d="m 15255,9294 v 177 c 0,101 -16,184 -47,251 -31,66 -78,116 -140,149 -62,33 -141,50 -234,50 -95,0 -174,-16 -237,-47 -63,-31 -110,-78 -142,-141 -31,-62 -47,-141 -47,-235 v -355 c 0,-100 16,-184 47,-250 31,-66 78,-116 140,-149 62,-33 140,-50 234,-50 78,0 144,13 201,40 56,26 102,66 138,118 36,53 61,119 77,199 v 0 h -129 v 0 c -14,-55 -34,-100 -60,-137 -26,-36 -57,-64 -95,-82 -38,-18 -82,-27 -132,-27 -67,0 -123,12 -168,37 -45,26 -78,63 -100,113 -23,50 -34,112 -34,188 v 355 c 0,70 11,128 34,174 23,46 57,80 102,104 45,23 102,34 171,34 67,0 121,-12 165,-35 43,-24 75,-60 97,-110 22,-50 33,-114 33,-191 v -69 h -291 v -111 z" /><path
     id="path58"
     class="fil2"
     d="m 15511,8706 h 119 v 1203 h -119 z m 82,1092 h 690 v 111 h -690 z m 0,-542 h 599 v 111 h -599 z m 0,-550 h 690 v 111 h -690 z" /><polygon
     id="polygon60"
     class="fil2"
     points="17411,9908 17289,9908 16578,8817 16642,8864 16642,9908 16523,9908 16523,8706 16643,8706 17341,9790 17292,9757 17292,8706 17411,8706 " /><path
     id="path62"
     class="fil2"
     d="m 18102,9921 c -83,0 -156,-18 -219,-55 -64,-37 -112,-90 -147,-157 -35,-68 -52,-147 -52,-236 v -330 c 0,-89 17,-168 52,-236 35,-67 83,-120 147,-157 63,-37 136,-56 219,-56 69,0 133,14 190,42 58,28 107,68 145,120 39,51 66,111 79,179 v 0 h -119 v 0 c -13,-45 -35,-85 -65,-120 -30,-35 -65,-62 -105,-81 -40,-19 -82,-29 -125,-29 -59,0 -112,14 -157,42 -45,28 -80,68 -105,119 -25,51 -37,110 -37,177 v 330 c 0,67 12,126 37,177 25,51 60,91 105,118 45,28 98,42 157,42 43,0 85,-9 125,-27 40,-18 75,-45 105,-79 30,-35 52,-76 65,-123 v 0 h 119 v 0 c -13,67 -40,127 -79,178 -39,52 -88,92 -145,120 -58,28 -122,42 -190,42 z" /><path
     id="path64"
     class="fil2"
     d="m 18739,8706 h 120 v 1203 h -120 z m 82,1092 h 691 v 111 h -691 z m 0,-542 h 600 v 111 h -600 z m 0,-550 h 691 v 111 h -691 z" /><path
     id="path66"
     class="fil3"
     d="m 20293,9332 h 384 c 47,0 89,-11 125,-33 35,-21 63,-51 83,-90 19,-38 29,-83 29,-134 v 0 c 0,-51 -10,-96 -29,-135 -20,-39 -48,-69 -83,-90 -36,-22 -78,-33 -125,-33 h -384 v -111 h 379 c 71,0 134,16 189,46 55,31 97,74 127,130 30,56 45,120 45,193 v 0 c 0,73 -15,137 -45,193 -30,55 -72,98 -127,128 -55,31 -118,46 -189,46 h -379 z m -87,-626 h 119 v 1203 h -119 z" /><path
     id="path68"
     class="fil3"
     d="m 21642,9921 c -90,0 -166,-17 -229,-52 -63,-35 -111,-85 -144,-151 -33,-66 -50,-146 -50,-240 v -341 c 0,-93 17,-173 50,-239 33,-67 81,-117 144,-152 63,-34 139,-52 229,-52 89,0 165,18 228,52 63,35 112,85 145,152 33,66 49,146 49,239 v 341 c 0,94 -16,174 -49,240 -33,66 -82,116 -145,151 -63,35 -139,52 -228,52 z m 0,-111 c 64,0 118,-12 164,-38 45,-26 80,-63 104,-112 23,-48 35,-107 35,-176 v -353 c 0,-68 -12,-127 -35,-176 -24,-49 -59,-86 -104,-112 -46,-25 -100,-38 -164,-38 -64,0 -119,13 -164,38 -46,26 -81,63 -104,112 -24,49 -36,108 -36,176 v 353 c 0,69 12,128 36,176 23,49 58,86 104,112 45,26 100,38 164,38 z" /><path
     id="path70"
     class="fil3"
     d="m 22709,9921 c -94,0 -172,-16 -235,-49 -62,-32 -109,-81 -140,-146 -31,-65 -46,-146 -46,-244 v -776 h 119 v 782 c 0,105 25,184 75,237 50,52 126,79 227,79 101,0 178,-27 228,-79 51,-53 76,-132 76,-237 v -782 h 119 v 776 c 0,98 -15,179 -46,244 -31,65 -79,114 -141,146 -63,33 -142,49 -236,49 z" /><path
     id="path72"
     class="fil3"
     d="m 23397,8706 h 119 v 1203 h -119 z m 84,1092 h 688 v 111 h -688 z" /><polygon
     id="polygon74"
     class="fil3"
     points="24392,8706 24511,8706 24511,9909 24392,9909 " /><path
     id="path76"
     class="fil3"
     d="m 24834,8706 h 119 v 1203 h -119 z m 82,1092 h 690 v 111 h -690 z m 0,-542 h 599 v 111 h -599 z m 0,-550 h 690 v 111 h -690 z" /><path
     class="fil4"
     d="m 10023,6962 c 1335,764 1798,2465 1035,3800 -764,1335 -2465,1798 -3800,1035 C 5923,11034 5460,9332 6223,7997 6987,6662 8688,6199 10023,6962 Z m -374,654 c 974,557 1313,1798 756,2772 -558,975 -1799,1313 -2773,756 -974,-557 -1313,-1799 -755,-2773 557,-974 1798,-1312 2772,-755 z"
     id="path78" /><path
     class="fil5"
     d="m 11263,7227 c -211,61 -396,91 -600,150 282,223 466,537 549,767 238,-400 357,-597 359,-602 137,-394 -239,-335 -308,-315 z"
     id="path80" /><polygon
     class="fil4"
     points="9166,11583 9310,12084 6285,12411 "
     id="polygon82" /><path
     class="fil4"
     d="m 6299,7877 587,333 -1912,3372 c 41,-193 720,-2731 1325,-3705 z"
     id="path84" /><path
     class="fil5"
     d="m 5724,11605 c 297,170 400,549 231,846 -170,297 -549,400 -846,230 -297,-170 -401,-548 -231,-846 170,-297 549,-400 846,-230 z"
     id="path86" /><polygon
     class="fil4 str0"
     points="24965,11307 12855,11307 12855,10376 24965,10376 "
     id="polygon88" /><path
     class="fil6"
     d="m 13831,10616 h 54 l 167,451 h -69 l -125,-364 -125,364 h -68 z m -89,292 h 237 v 60 h -237 z"
     id="path90" /><polygon
     id="polygon92"
     class="fil6"
     points="14661,11067 14603,11067 14383,10724 14390,10716 14390,11067 14328,11067 14328,10616 14385,10616 14606,10965 14598,10973 14598,10616 14661,10616 " /><path
     id="path94"
     class="fil6"
     d="m 15097,10616 h 54 l 166,451 h -68 l -125,-364 -125,364 h -68 z m -90,292 h 238 v 60 h -238 z" /><path
     id="path96"
     class="fil6"
     d="m 15593,10616 h 64 v 451 h -64 z m 32,391 h 258 v 60 h -258 z" /><polygon
     id="polygon98"
     class="fil6"
     points="16247,10820 16346,10616 16416,10616 16279,10884 16279,11067 16216,11067 16216,10884 16078,10616 16149,10616 " /><path
     id="path100"
     class="fil6"
     d="m 16800,11072 c -21,0 -42,-2 -61,-6 -20,-4 -38,-11 -55,-19 -17,-8 -33,-19 -47,-31 v 0 l 39,-48 v 0 c 17,15 36,26 57,33 21,8 43,11 67,11 33,0 58,-6 76,-18 18,-12 27,-29 27,-51 v 0 c 0,-16 -4,-29 -12,-38 -8,-9 -19,-16 -32,-20 -13,-5 -29,-9 -50,-13 0,0 -1,0 -2,0 0,0 -1,0 -2,0 l -4,-1 c -31,-5 -55,-11 -74,-18 -19,-6 -35,-18 -49,-35 -13,-17 -20,-42 -20,-74 v 0 c 0,-28 6,-52 19,-72 12,-19 31,-34 55,-45 24,-10 52,-15 86,-15 16,0 32,2 48,5 15,4 31,9 46,16 15,7 30,15 45,26 v 0 l -36,50 v 0 c -17,-13 -34,-22 -52,-28 -17,-7 -34,-10 -51,-10 -31,0 -55,6 -72,19 -17,12 -25,29 -25,52 v 0 c 0,16 4,28 13,37 9,9 20,15 33,20 13,4 31,8 55,13 0,0 1,0 2,0 1,0 1,0 2,1 1,0 2,0 4,0 1,0 2,1 3,1 27,5 50,12 68,20 19,7 34,20 46,37 13,17 19,40 19,70 v 0 c 0,28 -7,51 -20,71 -13,19 -32,34 -56,45 -25,10 -55,15 -90,15 z" /><path
     id="path102"
     class="fil6"
     d="m 17257,10616 h 64 v 451 h -64 z m 31,391 h 259 v 60 h -259 z m 0,-194 h 225 v 60 h -225 z m 0,-197 h 259 v 61 h -259 z" /><path
     id="path104"
     class="fil6"
     d="m 18417,10888 c -14,-15 -26,-31 -36,-47 -11,-16 -18,-33 -24,-51 -5,-17 -8,-35 -8,-53 0,-40 11,-70 32,-92 21,-22 51,-32 89,-32 38,0 68,10 89,31 21,21 31,50 31,88 v 6 h -63 v -6 c 0,-18 -5,-33 -15,-43 -10,-10 -24,-15 -42,-15 -18,0 -32,6 -42,17 -10,10 -15,26 -15,46 0,12 1,24 5,37 4,13 10,25 18,38 7,13 17,25 27,36 l 206,219 h -80 z m 31,-19 c -26,0 -46,6 -60,19 -14,13 -21,31 -21,55 0,23 7,40 22,53 15,13 36,19 63,19 26,0 48,-7 67,-21 19,-13 32,-34 42,-60 10,-26 15,-58 15,-95 h 60 c 0,49 -8,91 -23,126 -16,35 -38,61 -68,79 -29,19 -65,28 -106,28 -29,0 -53,-5 -73,-15 -20,-10 -35,-25 -45,-44 -11,-20 -16,-43 -16,-70 0,-37 10,-67 31,-89 20,-22 48,-35 85,-38 z" /><path
     id="path106"
     class="fil6"
     d="m 19554,11072 c -22,0 -43,-2 -62,-6 -19,-4 -37,-11 -54,-19 -17,-8 -33,-19 -48,-31 v 0 l 40,-48 v 0 c 17,15 36,26 56,33 21,8 44,11 68,11 32,0 58,-6 76,-18 18,-12 27,-29 27,-51 v 0 c 0,-16 -4,-29 -13,-38 -8,-9 -18,-16 -31,-20 -13,-5 -30,-9 -50,-13 -1,0 -2,0 -2,0 -1,0 -2,0 -2,0 l -5,-1 c -30,-5 -55,-11 -74,-18 -18,-6 -35,-18 -48,-35 -14,-17 -20,-42 -20,-74 v 0 c 0,-28 6,-52 19,-72 12,-19 30,-34 54,-45 24,-10 53,-15 87,-15 16,0 32,2 47,5 16,4 31,9 47,16 15,7 30,15 44,26 v 0 l -36,50 v 0 c -17,-13 -34,-22 -51,-28 -17,-7 -34,-10 -51,-10 -31,0 -55,6 -72,19 -17,12 -26,29 -26,52 v 0 c 0,16 5,28 14,37 8,9 19,15 32,20 14,4 32,8 55,13 1,0 2,0 3,0 0,0 1,0 2,1 1,0 2,0 3,0 1,0 3,1 4,1 27,5 50,12 68,20 18,7 34,20 46,37 12,17 18,40 18,70 v 0 c 0,28 -6,51 -19,71 -13,19 -32,34 -57,45 -25,10 -54,15 -89,15 z" /><path
     id="path108"
     class="fil6"
     d="m 20083,10653 h 63 v 414 h -63 z m -128,-37 h 318 v 61 h -318 z" /><path
     id="path110"
     class="fil6"
     d="m 20571,10816 h 154 c 12,0 22,-2 32,-8 9,-6 16,-14 21,-25 5,-11 8,-23 8,-37 v 0 c 0,-14 -3,-26 -8,-36 -5,-11 -12,-19 -21,-25 -9,-6 -20,-9 -32,-9 h -154 v -60 h 151 c 26,0 49,5 69,16 20,11 35,26 46,46 11,20 16,43 16,68 v 0 c 0,26 -5,49 -16,69 -11,19 -27,35 -46,45 -20,11 -43,17 -69,17 h -151 z m -28,-200 h 64 v 451 h -64 z m 151,247 63,-15 115,219 h -75 z" /><path
     id="path112"
     class="fil6"
     d="m 21273,10616 h 53 l 167,451 h -69 l -125,-364 -124,364 h -69 z m -90,292 h 237 v 60 h -237 z" /><path
     id="path114"
     class="fil6"
     d="m 21822,10653 h 63 v 414 h -63 z m -128,-37 h 319 v 61 h -319 z" /><path
     id="path116"
     class="fil6"
     d="m 22283,10616 h 63 v 451 h -63 z m 30,391 h 259 v 60 h -259 z m 0,-194 h 225 v 60 h -225 z m 0,-197 h 259 v 61 h -259 z" /><path
     id="14"
     class="fil6"
     d="m 23178,10824 v 79 c 0,34 -6,63 -19,89 -13,25 -32,45 -56,59 -23,14 -51,21 -82,21 -32,0 -60,-7 -84,-20 -24,-13 -43,-31 -56,-55 -14,-25 -20,-52 -20,-84 v -133 c 0,-33 6,-63 19,-88 13,-26 32,-45 56,-59 24,-14 51,-21 83,-21 26,0 49,5 71,16 22,11 40,27 55,47 15,21 24,44 30,71 v 0 h -69 v 0 c -4,-15 -10,-28 -19,-39 -9,-11 -19,-19 -31,-25 -12,-6 -24,-9 -37,-9 -19,0 -35,5 -49,14 -14,9 -25,21 -33,37 -7,16 -11,35 -11,56 v 133 c 0,20 4,37 11,51 8,15 19,26 34,34 14,8 31,12 50,12 18,0 34,-4 49,-12 14,-9 24,-21 32,-37 8,-16 12,-35 12,-57 v -19 h -92 v -61 z" /><polygon
     id="15"
     class="fil6"
     points="23482,10616 23546,10616 23546,11067 23482,11067 " /><path
     id="16"
     class="fil6"
     d="m 23865,10616 h 64 v 451 h -64 z m 31,391 h 259 v 60 h -259 z m 0,-194 h 225 v 60 h -225 z m 0,-197 h 259 v 61 h -259 z" /></g>
  
  
  
  
  
  
  
  
  
  
  
  
  
  
  
  
  
  
  
  
  
  
  
 </g>
</svg>
